<?xml version="1.0" encoding="utf-8"?>
<!-- Generator: Adobe Illustrator 18.0.0, SVG Export Plug-In . SVG Version: 6.00 Build 0)  -->
<!DOCTYPE svg PUBLIC "-//W3C//DTD SVG 1.1//EN" "http://www.w3.org/Graphics/SVG/1.1/DTD/svg11.dtd">
<svg version="1.1" id="Layer_1" xmlns="http://www.w3.org/2000/svg" xmlns:xlink="http://www.w3.org/1999/xlink" x="0px" y="0px"
	 viewBox="0 0 74.8 74.3" enable-background="new 0 0 74.8 74.3" xml:space="preserve">
<path fill="#CECECE" d="M54.6,7.5l-0.3,1.7c0.9,0.5,0.9,0.6,1.8,1.1l1.4-1c0.9,0.6,0.9,0.6,1.8,1.3l-0.5,1.6
	c0.8,0.7,0.8,0.7,1.6,1.4l1.5-0.8c0.8,0.8,0.8,0.7,1.5,1.5l-0.7,1.5c0.7,0.8,0.7,0.8,1.4,1.6l1.4-0.5c0.7,0.9,0.6,0.8,1.3,1.7
	l-0.9,1.2c0.5,0.9,0.6,0.9,1.1,1.8l1.4-0.3c0.5,1,0.5,0.9,1,1.9l-1,1c0.4,0.9,0.4,1,0.8,1.9l1.4,0c0.4,1.1,0.3,1,0.7,2.1l-1.2,0.8
	c0.3,1,0.3,1,0.5,2l1.4,0.2c0.2,1.1,0.2,1,0.4,2.1L71.3,34c0.1,1,0.1,1.1,0.2,2.1l1.4,0.4c0,1.1,0,1.1,0,2.2l-1.4,0.5
	c-0.1,1-0.1,1.1-0.1,2.1l1.5,0.7c-0.2,1.1-0.1,1-0.3,2.1l-1.7,0.3c-0.2,1-0.2,1.1-0.5,2.1l1.4,1c-0.3,1.1-0.3,1-0.6,2.1l-1.7,0
	c-0.4,0.9-0.4,1-0.8,2l1.2,1.2c-0.5,1-0.5,0.9-1,1.9l-1.7-0.3c-0.5,0.9-0.6,0.9-1.1,1.8l1,1.4c-0.6,0.9-0.6,0.9-1.3,1.8l-1.6-0.5
	c-0.7,0.8-0.7,0.8-1.4,1.6l0.8,1.5c-0.8,0.8-0.7,0.8-1.5,1.5l-1.5-0.7C60,63.3,60,63.4,59.2,64l0.5,1.4c-0.9,0.7-0.8,0.6-1.7,1.3
	l-1.2-0.9c-0.9,0.5-0.9,0.6-1.8,1.1l0.3,1.4c-1,0.5-0.9,0.5-1.9,1l-1-1c-0.9,0.4-1,0.4-1.9,0.8l0,1.4c-1.1,0.4-1,0.3-2.1,0.7
	l-0.8-1.2c-1,0.3-1,0.3-2,0.5l-0.2,1.4c-1.1,0.2-1,0.2-2.1,0.4l-0.7-1.3c-1,0.1-1.1,0.1-2.1,0.2L40,72.8c-1.1,0-1.1,0-2.2,0
	l-0.5-1.4c-1-0.1-1.1-0.1-2.1-0.1l-0.7,1.5c-1.1-0.2-1-0.1-2.1-0.3l-0.3-1.7c-1-0.2-1.1-0.2-2.1-0.5l-1,1.4c-1.1-0.3-1-0.3-2.1-0.6
	l0-1.7c-0.9-0.4-1-0.4-2-0.8l-1.2,1.2c-1-0.5-0.9-0.5-1.9-1l0.3-1.7c-0.9-0.5-0.9-0.6-1.8-1.1l-1.4,1c-0.9-0.6-0.9-0.6-1.8-1.3
	l0.5-1.6c-0.8-0.7-0.8-0.7-1.6-1.4l-1.5,0.8c-0.8-0.8-0.8-0.7-1.5-1.5l0.7-1.5c-0.7-0.8-0.7-0.8-1.4-1.6L11,59.7
	c-0.7-0.9-0.6-0.8-1.3-1.7l0.9-1.2C10,55.9,10,55.8,9.5,55L8,55.2c-0.5-1-0.5-0.9-1-1.9l1-1c-0.4-0.9-0.4-1-0.8-1.9l-1.4,0
	c-0.4-1.1-0.3-1-0.7-2.1l1.2-0.8c-0.3-1-0.3-1-0.5-2l-1.4-0.2c-0.2-1.1-0.2-1-0.4-2.1l1.3-0.7c-0.1-1-0.1-1.1-0.2-2.1L3.6,40
	c0-1.1,0-1.1,0-2.2L5,37.3c0.1-1,0.1-1.1,0.1-2.1l-1.5-0.7c0.2-1.1,0.1-1,0.3-2.1l1.7-0.3c0.2-1,0.2-1.1,0.5-2.1l-1.4-1
	C5,28,5,28,5.3,27l1.7,0c0.4-0.9,0.4-1,0.8-2l-1.2-1.2c0.5-1,0.5-0.9,1-1.9l1.7,0.3c0.5-0.9,0.6-0.9,1.1-1.8l-1-1.4
	c0.6-0.9,0.6-0.9,1.3-1.8l1.6,0.5c0.7-0.8,0.7-0.8,1.4-1.6l-0.8-1.5c0.8-0.8,0.7-0.8,1.5-1.5l1.5,0.7c0.8-0.7,0.8-0.7,1.6-1.4
	L16.8,11c0.9-0.7,0.8-0.6,1.7-1.3l1.2,0.9c0.9-0.5,0.9-0.6,1.8-1.1L21.2,8c1-0.5,0.9-0.5,1.9-1l1,1c0.9-0.4,1-0.4,1.9-0.8l0-1.4
	c1.1-0.4,1-0.3,2.1-0.7L29,6.2C30,6,30,6,31,5.7l0.2-1.4c1.1-0.2,1-0.2,2.1-0.4L34,5.2c1-0.1,1.1-0.1,2.1-0.2l0.4-1.4
	c1.1,0,1.1,0,2.2,0L39.2,5c1,0.1,1.1,0.1,2.1,0.1L42,3.6c1.1,0.2,1,0.1,2.1,0.3l0.3,1.7c1,0.2,1.1,0.2,2.1,0.5l1-1.4
	c1.1,0.3,1,0.3,2.1,0.6l0,1.7c0.9,0.4,1,0.4,2,0.8l1.2-1.2C53.7,7,53.6,7,54.6,7.5z M9.1,33.9c-1.4,9.9,2.2,20,9.9,26.6l8.6-17.5
	L9.1,33.9z M35.6,26.9l8.6-17.5c-10-2.1-20.2,1.1-27.2,8.4L35.6,26.9z M67.4,42.6c1.5-9.8-2.1-19.8-9.6-26.4l-8.6,17.4L67.4,42.6z
	 M41.2,49.8l-8.6,17.4c9.8,1.9,19.8-1.3,26.8-8.4L41.2,49.8z M30.2,34.3c-2.2,4.4-0.4,9.8,4.1,12c4.4,2.2,9.8,0.4,12-4.1
	c2.2-4.4,0.4-9.8-4.1-12S32.4,29.8,30.2,34.3z M53.3,45.6c-0.4,0.8-0.1,1.9,0.8,2.3s1.9,0.1,2.3-0.8c0.4-0.8,0.1-1.9-0.8-2.3
	S53.7,44.8,53.3,45.6z M20.2,29.3c-0.4,0.8-0.1,1.9,0.8,2.3c0.8,0.4,1.9,0.1,2.3-0.8s0.1-1.9-0.8-2.3C21.6,28.1,20.6,28.5,20.2,29.3
	z"/>
</svg>
