<?xml version="1.0" encoding="utf-8"?>
<!-- Generator: Adobe Illustrator 18.0.0, SVG Export Plug-In . SVG Version: 6.00 Build 0)  -->
<!DOCTYPE svg PUBLIC "-//W3C//DTD SVG 1.1//EN" "http://www.w3.org/Graphics/SVG/1.1/DTD/svg11.dtd">
<svg version="1.1" id="Layer_1" xmlns="http://www.w3.org/2000/svg" xmlns:xlink="http://www.w3.org/1999/xlink" x="0px" y="0px"
	 viewBox="0 0 52 50.6" enable-background="new 0 0 52 50.6" xml:space="preserve">
<g>
	<path fill="#CECECE" d="M42.1,11.3L40,13.7c-0.2,0.2-0.1,0.6,0.1,0.7l6.1,3.1c0.3,0.2,0.3,0.6,0,0.8l-2.8,1.4
		c-0.3,0.1-0.3,0.5-0.1,0.7l4.5,5.2c0.2,0.3,0.1,0.7-0.3,0.8l-3.3,0.5c-0.3,0-0.5,0.3-0.4,0.6l2.1,6.6c0.1,0.3-0.2,0.7-0.6,0.6
		l-3.2-0.8c-0.3-0.1-0.5,0.1-0.6,0.4L41,41c0,0.4-0.5,0.6-0.8,0.3l-2.4-2.1c-0.2-0.2-0.6-0.1-0.7,0.1L34,45.5
		c-0.2,0.3-0.6,0.3-0.8,0l-1.4-2.8c-0.1-0.3-0.5-0.3-0.7-0.1L25.8,47c-0.3,0.2-0.7,0.1-0.8-0.3l-0.5-3.3c0-0.3-0.3-0.5-0.6-0.4
		l-6.6,2.1c-0.3,0.1-0.7-0.2-0.6-0.6l0.8-3.2c0.1-0.3-0.1-0.5-0.4-0.6l-6.8-0.6c-0.4,0-0.6-0.5-0.3-0.8l2.1-2.4
		c0.2-0.2,0.1-0.6-0.1-0.7L6,33.2c-0.3-0.2-0.3-0.6,0-0.8L8.8,31c0.3-0.1,0.3-0.5,0.1-0.7l-4.5-5.2c-0.2-0.3-0.1-0.7,0.3-0.8L8,23.8
		c0.3,0,0.5-0.3,0.4-0.6l-2.1-6.6c-0.1-0.3,0.2-0.7,0.6-0.6l3.2,0.8c0.3,0.1,0.5-0.1,0.6-0.4l0.6-6.8c0-0.4,0.5-0.6,0.8-0.3l2.4,2.1
		c0.2,0.2,0.6,0.1,0.7-0.1l3.1-6.1c0.2-0.3,0.6-0.3,0.8,0l1.4,2.8c0.1,0.3,0.5,0.3,0.7,0.1l5.2-4.5c0.3-0.2,0.7-0.1,0.8,0.3l0.5,3.3
		c0,0.3,0.3,0.5,0.6,0.4l6.6-2.1c0.3-0.1,0.7,0.2,0.6,0.6l-0.8,3.2c-0.1,0.3,0.1,0.5,0.4,0.6l6.8,0.6C42.2,10.5,42.3,11,42.1,11.3z
		 M32.1,12.8c-7-3.3-15.3-0.3-18.5,6.6c-3.3,7-0.3,15.3,6.6,18.5c7,3.3,15.3,0.3,18.5-6.6C42,24.4,39,16.1,32.1,12.8z"/>
	<path fill="#CECECE" d="M34.2,11.9c-0.4-1.1-3.5-2.6-4.6-2.2c0,0-9.2,7.3-10.6,10.4c-1.8,3.8-0.2,8.4,3.7,10.2
		c3.8,1.8,8.4,0.2,10.2-3.7C34.3,23.6,34.2,11.9,34.2,11.9z M27.3,24.4c-0.4,0.8-1.4,1.2-2.2,0.8c-0.8-0.4-1.2-1.4-0.8-2.2
		c0.4-0.8,1.4-1.2,2.2-0.8C27.3,22.6,27.7,23.6,27.3,24.4z"/>
</g>
</svg>
