<?xml version="1.0" encoding="utf-8"?>
<!-- Generator: Adobe Illustrator 18.0.0, SVG Export Plug-In . SVG Version: 6.00 Build 0)  -->
<!DOCTYPE svg PUBLIC "-//W3C//DTD SVG 1.1//EN" "http://www.w3.org/Graphics/SVG/1.1/DTD/svg11.dtd">
<svg version="1.1" id="Layer_1" xmlns="http://www.w3.org/2000/svg" xmlns:xlink="http://www.w3.org/1999/xlink" x="0px" y="0px"
	 viewBox="0 0 52 50.6" enable-background="new 0 0 52 50.6" xml:space="preserve">
<g>
	<path fill="#CECECE" d="M49.3,18.2l-1.9,2.1c0.2,0.8,0.2,1.2,0.4,2l2.5,1.2c0,1,0.1,1.2,0.1,2.3L48,27.1c-0.1,0.9-0.1,1.2-0.2,2
		l2.1,1.9c-0.3,1-0.3,1.2-0.6,2.2l-2.8,0.5c-0.4,0.8-0.5,1.1-0.9,1.9l1.4,2.4c-0.6,0.9-0.7,1-1.3,1.9L43,39.7
		c-0.6,0.6-0.8,0.9-1.4,1.5l0.6,2.7c-0.8,0.6-1,0.8-1.8,1.4l-2.5-1.2c-0.8,0.4-1,0.6-1.8,1l-0.3,2.8c-1,0.4-1.1,0.4-2.1,0.8
		l-2.1-1.9c-0.8,0.2-1.2,0.2-2,0.4l-1.2,2.5c-1,0-1.2,0.1-2.3,0.1l-1.4-2.4c-0.9-0.1-1.2-0.1-2-0.2l-1.9,2.1c-1-0.3-1.2-0.3-2.2-0.6
		L18,45.9c-0.8-0.4-1.1-0.5-1.9-0.9l-2.4,1.4c-0.9-0.6-1-0.7-1.9-1.3l0.3-2.8c-0.6-0.6-0.9-0.8-1.5-1.4l-2.7,0.6
		c-0.6-0.8-0.8-1-1.4-1.8l1.2-2.5c-0.4-0.8-0.6-1-1-1.8l-2.8-0.3c-0.4-1-0.4-1.1-0.8-2.1L5,30.9c-0.2-0.8-0.2-1.2-0.4-2L2,27.8
		c0-1-0.1-1.2-0.1-2.3l2.4-1.4c0.1-0.9,0.1-1.2,0.2-2l-2.1-1.9c0.3-1,0.3-1.2,0.6-2.2l2.8-0.5c0.4-0.8,0.5-1.1,0.9-1.9l-1.4-2.4
		c0.6-0.9,0.7-1,1.3-1.9l2.8,0.3c0.6-0.6,0.8-0.9,1.4-1.5l-0.6-2.7c0.8-0.6,1-0.8,1.8-1.4l2.5,1.2c0.8-0.4,1-0.6,1.8-1l0.3-2.8
		c1-0.4,1.1-0.4,2.1-0.8l2.1,1.9c0.8-0.2,1.2-0.2,2-0.4l1.2-2.5c1,0,1.2-0.1,2.3-0.1l1.4,2.4c0.9,0.1,1.2,0.1,2,0.2L31.6,2
		c1,0.3,1.2,0.3,2.2,0.6l0.5,2.8c0.8,0.4,1.1,0.5,1.9,0.9l2.4-1.4c0.9,0.6,1,0.7,1.9,1.3l-0.3,2.8c0.6,0.6,0.9,0.8,1.5,1.4l2.7-0.6
		c0.6,0.8,0.8,1,1.4,1.8L44.7,14c0.4,0.8,0.6,1,1,1.8l2.8,0.3C48.9,17.1,49,17.3,49.3,18.2z M27.5,23.1l13.7-5.1
		c1.2-0.5,1.7-1.9,1-3C38.2,9,31.1,5.7,24,6.5c-1.3,0.2-2.1,1.5-1.7,2.7L27.5,23.1z M37,41.5c5.8-4,9-10.9,8.3-17.9
		c-0.1-1.3-1.5-2.1-2.7-1.7L28.9,27l5,13.5C34.4,41.7,35.9,42.2,37,41.5z M10.4,36.5c4,5.8,11,9,18.1,8.1c1.3-0.2,2.1-1.5,1.7-2.7
		l-5-13.5l-13.7,5.1C10.2,33.9,9.7,35.4,10.4,36.5z M15.5,9.7c-6.1,4-9.3,11.2-8.3,18.4c0.2,1.3,1.5,2.1,2.7,1.6l13.8-5.1l-5.2-13.9
		C18.1,9.4,16.6,9,15.5,9.7z"/>
	<circle fill="#CECECE" cx="26.2" cy="25.6" r="11.9"/>
</g>
</svg>
