<?xml version="1.0" encoding="utf-8"?>
<!-- Generator: Adobe Illustrator 18.0.0, SVG Export Plug-In . SVG Version: 6.00 Build 0)  -->
<!DOCTYPE svg PUBLIC "-//W3C//DTD SVG 1.1//EN" "http://www.w3.org/Graphics/SVG/1.1/DTD/svg11.dtd">
<svg version="1.1" id="Layer_1" xmlns="http://www.w3.org/2000/svg" xmlns:xlink="http://www.w3.org/1999/xlink" x="0px" y="0px"
	 viewBox="0 0 200 103.5" enable-background="new 0 0 200 103.5" xml:space="preserve">
<g>
	<g>
		<path fill="#FFFFFF" d="M155.4,37.3l-1.5,1.7c-0.1,0.2-0.1,0.4,0.1,0.5l4.4,2.2c0.2,0.1,0.2,0.5,0,0.6l-2,1
			c-0.2,0.1-0.2,0.3-0.1,0.5l3.2,3.8c0.2,0.2,0.1,0.5-0.2,0.5l-2.4,0.3c-0.2,0-0.3,0.2-0.3,0.4l1.5,4.7c0.1,0.2-0.1,0.5-0.4,0.4
			l-2.3-0.6c-0.2-0.1-0.4,0.1-0.4,0.3l-0.4,4.9c0,0.3-0.3,0.4-0.5,0.2l-1.7-1.5c-0.2-0.1-0.4-0.1-0.5,0.1l-2.2,4.4
			c-0.1,0.2-0.5,0.2-0.6,0l-1-2c-0.1-0.2-0.3-0.2-0.5-0.1l-3.8,3.2c-0.2,0.2-0.5,0.1-0.5-0.2l-0.3-2.4c0-0.2-0.2-0.3-0.4-0.3
			l-4.7,1.5c-0.2,0.1-0.5-0.1-0.4-0.4l0.6-2.3c0.1-0.2-0.1-0.4-0.3-0.4l-4.9-0.4c-0.3,0-0.4-0.3-0.2-0.5l1.5-1.7
			c0.1-0.2,0.1-0.4-0.1-0.5l-4.4-2.2c-0.2-0.1-0.2-0.5,0-0.6l2-1c0.2-0.1,0.2-0.3,0.1-0.5l-3.2-3.8c-0.2-0.2-0.1-0.5,0.2-0.5
			l2.4-0.3c0.2,0,0.3-0.2,0.3-0.4l-1.5-4.7c-0.1-0.2,0.1-0.5,0.4-0.4l2.3,0.6c0.2,0.1,0.4-0.1,0.4-0.3l0.4-4.9
			c0-0.3,0.3-0.4,0.5-0.2l1.7,1.5c0.2,0.1,0.4,0.1,0.5-0.1l2.2-4.4c0.1-0.2,0.5-0.2,0.6,0l1,2c0.1,0.2,0.3,0.2,0.5,0.1l3.8-3.2
			c0.2-0.2,0.5-0.1,0.5,0.2l0.3,2.4c0,0.2,0.2,0.3,0.4,0.3l4.7-1.5c0.2-0.1,0.5,0.1,0.4,0.4l-0.6,2.3c-0.1,0.2,0.1,0.4,0.3,0.4
			l4.9,0.4C155.5,36.8,155.6,37.1,155.4,37.3z M148.2,38.4c-5-2.4-11-0.2-13.4,4.8c-2.4,5-0.2,11,4.8,13.4c5,2.4,11,0.2,13.4-4.8
			C155.3,46.7,153.2,40.7,148.2,38.4z"/>
		<path fill="#FFFFFF" d="M149.7,37.7c-0.3-0.8-2.5-1.8-3.3-1.6c0,0-6.6,5.3-7.6,7.5c-1.3,2.8-0.1,6.1,2.6,7.4
			c2.8,1.3,6.1,0.1,7.4-2.6C149.8,46.2,149.7,37.7,149.7,37.7z M144.8,46.7c-0.3,0.6-1,0.8-1.6,0.6c-0.6-0.3-0.8-1-0.6-1.6
			c0.3-0.6,1-0.8,1.6-0.6S145,46.1,144.8,46.7z"/>
		<path fill="#FFFFFF" d="M78.3,40.8l-1.5,1.6c0.1,0.7,0.2,0.9,0.3,1.6l2,0.9c0,0.8,0,0.9,0.1,1.8l-1.9,1.1
			c-0.1,0.7-0.1,0.9-0.2,1.6l1.6,1.5c-0.2,0.8-0.3,0.9-0.5,1.7l-2.1,0.4c-0.3,0.6-0.4,0.8-0.7,1.4l1.1,1.9c-0.4,0.7-0.5,0.8-1,1.5
			l-2.2-0.3c-0.5,0.5-0.6,0.7-1.1,1.2l0.4,2.1c-0.6,0.5-0.7,0.6-1.4,1.1l-2-0.9c-0.6,0.3-0.8,0.5-1.4,0.8l-0.3,2.2
			c-0.8,0.3-0.9,0.3-1.6,0.6l-1.6-1.5c-0.7,0.1-0.9,0.2-1.6,0.3l-0.9,2c-0.8,0-0.9,0-1.8,0.1l-1.1-1.9c-0.7-0.1-0.9-0.1-1.6-0.2
			l-1.5,1.6c-0.8-0.2-0.9-0.3-1.7-0.5l-0.4-2.1c-0.6-0.3-0.8-0.4-1.4-0.7l-1.9,1.1c-0.7-0.4-0.8-0.5-1.5-1l0.3-2.2
			c-0.5-0.5-0.7-0.6-1.2-1.1l-2.1,0.4c-0.5-0.6-0.6-0.7-1.1-1.4l0.9-2c-0.3-0.6-0.5-0.8-0.8-1.4l-2.2-0.3c-0.3-0.8-0.3-0.9-0.6-1.6
			l1.5-1.6c-0.1-0.7-0.2-0.9-0.3-1.6l-2-0.9c0-0.8,0-0.9-0.1-1.8l1.9-1.1c0.1-0.7,0.1-0.9,0.2-1.6l-1.6-1.5c0.2-0.8,0.3-0.9,0.5-1.7
			l2.1-0.4c0.3-0.6,0.4-0.8,0.7-1.4l-1.1-1.9c0.4-0.7,0.5-0.8,1-1.5l2.2,0.3c0.5-0.5,0.6-0.7,1.1-1.2l-0.4-2.1
			c0.6-0.5,0.7-0.6,1.4-1.1l2,0.9c0.6-0.3,0.8-0.5,1.4-0.8l0.3-2.2c0.8-0.3,0.9-0.3,1.6-0.6l1.6,1.5c0.7-0.1,0.9-0.2,1.6-0.3l0.9-2
			c0.8,0,0.9,0,1.8-0.1l1.1,1.9c0.7,0.1,0.9,0.1,1.6,0.2l1.5-1.6c0.8,0.2,0.9,0.3,1.7,0.5l0.4,2.1c0.6,0.3,0.8,0.4,1.4,0.7l1.9-1.1
			c0.7,0.4,0.8,0.5,1.5,1l-0.3,2.2c0.5,0.5,0.7,0.6,1.2,1.1l2.1-0.4c0.5,0.6,0.6,0.7,1.1,1.4l-0.9,2c0.3,0.6,0.5,0.8,0.8,1.4
			l2.2,0.3C78,39.9,78,40.1,78.3,40.8z M61.4,44.6L72,40.7c1-0.4,1.3-1.5,0.8-2.3c-3.1-4.7-8.6-7.2-14.1-6.6c-1,0.1-1.6,1.2-1.3,2.1
			L61.4,44.6z M68.8,58.8c4.5-3.1,7-8.4,6.4-13.8c-0.1-1-1.2-1.7-2.1-1.3l-10.5,3.9L66.4,58C66.8,59,67.9,59.4,68.8,58.8z M48.2,55
			c3.1,4.5,8.5,7,14,6.3c1-0.1,1.6-1.2,1.3-2.1l-3.9-10.5l-10.6,3.9C48,53,47.6,54.1,48.2,55z M52.1,34.2c-4.7,3.1-7.2,8.7-6.5,14.2
			c0.1,1,1.2,1.6,2.1,1.3l10.7-4l-4-10.8C54.1,34,53,33.6,52.1,34.2z"/>
		<circle fill="#FFFFFF" cx="60.4" cy="46.5" r="9.2"/>
		<path fill="#FFFFFF" d="M115.7,11.2l-0.2,1.2c0.6,0.4,0.7,0.4,1.3,0.8l1-0.7c0.7,0.5,0.6,0.4,1.3,0.9l-0.4,1.2
			c0.6,0.5,0.6,0.5,1.2,1l1.1-0.6c0.6,0.6,0.5,0.5,1.1,1.1l-0.5,1.1c0.5,0.6,0.5,0.6,1,1.1l1-0.4c0.5,0.6,0.4,0.6,0.9,1.3l-0.6,0.8
			c0.4,0.6,0.4,0.7,0.8,1.3l1-0.2c0.4,0.7,0.4,0.7,0.7,1.4l-0.7,0.7c0.3,0.7,0.3,0.7,0.6,1.4l1,0c0.3,0.8,0.2,0.7,0.5,1.5l-0.8,0.6
			c0.2,0.7,0.2,0.8,0.4,1.5l1,0.1c0.1,0.8,0.1,0.7,0.3,1.5l-0.9,0.5c0.1,0.7,0.1,0.8,0.1,1.5l1,0.3c0,0.8,0,0.8,0,1.6l-1,0.3
			c0,0.7-0.1,0.8-0.1,1.5l1.1,0.5c-0.1,0.8-0.1,0.8-0.2,1.5l-1.2,0.2c-0.2,0.7-0.2,0.8-0.3,1.5l1,0.7c-0.2,0.8-0.2,0.7-0.5,1.5
			l-1.2,0c-0.3,0.7-0.3,0.7-0.6,1.4l0.9,0.9c-0.4,0.7-0.3,0.7-0.7,1.4l-1.2-0.2c-0.4,0.6-0.4,0.7-0.8,1.3l0.7,1
			c-0.5,0.7-0.4,0.6-0.9,1.3l-1.2-0.4c-0.5,0.6-0.5,0.6-1,1.2l0.6,1.1c-0.6,0.6-0.5,0.5-1.1,1.1l-1.1-0.5c-0.6,0.5-0.6,0.5-1.1,1
			l0.4,1c-0.6,0.5-0.6,0.4-1.3,0.9l-0.8-0.6c-0.6,0.4-0.7,0.4-1.3,0.8l0.2,1c-0.7,0.4-0.7,0.4-1.4,0.7l-0.7-0.7
			c-0.7,0.3-0.7,0.3-1.4,0.6l0,1c-0.8,0.3-0.7,0.2-1.5,0.5l-0.6-0.8c-0.7,0.2-0.8,0.2-1.5,0.4l-0.1,1c-0.8,0.1-0.7,0.1-1.5,0.3
			l-0.5-0.9c-0.7,0.1-0.8,0.1-1.5,0.1l-0.3,1c-0.8,0-0.8,0-1.6,0l-0.3-1c-0.7,0-0.8-0.1-1.5-0.1l-0.5,1.1c-0.8-0.1-0.8-0.1-1.5-0.2
			l-0.2-1.2c-0.7-0.2-0.8-0.2-1.5-0.3l-0.7,1c-0.8-0.2-0.7-0.2-1.5-0.5l0-1.2c-0.7-0.3-0.7-0.3-1.4-0.6l-0.9,0.9
			c-0.7-0.4-0.7-0.3-1.4-0.7l0.2-1.2c-0.6-0.4-0.7-0.4-1.3-0.8l-1,0.7c-0.7-0.5-0.6-0.4-1.3-0.9l0.4-1.2c-0.6-0.5-0.6-0.5-1.2-1
			l-1.1,0.6c-0.6-0.6-0.5-0.5-1.1-1.1l0.5-1.1c-0.5-0.6-0.5-0.6-1-1.1l-1,0.4c-0.5-0.6-0.4-0.6-0.9-1.3l0.6-0.8
			c-0.4-0.6-0.4-0.7-0.8-1.3l-1,0.2c-0.4-0.7-0.4-0.7-0.7-1.4l0.7-0.7c-0.3-0.7-0.3-0.7-0.6-1.4l-1,0c-0.3-0.8-0.2-0.7-0.5-1.5
			l0.8-0.6c-0.2-0.7-0.2-0.8-0.4-1.5l-1-0.1c-0.1-0.8-0.1-0.7-0.3-1.5l0.9-0.5c-0.1-0.7-0.1-0.8-0.1-1.5l-1-0.3c0-0.8,0-0.8,0-1.6
			l1-0.3c0-0.7,0.1-0.8,0.1-1.5L79,30.6c0.1-0.8,0.1-0.8,0.2-1.5l1.2-0.2c0.2-0.7,0.2-0.8,0.3-1.5l-1-0.7C80,26,80,26,80.2,25.2
			l1.2,0c0.3-0.7,0.3-0.7,0.6-1.4l-0.9-0.9c0.4-0.7,0.3-0.7,0.7-1.4l1.2,0.2c0.4-0.6,0.4-0.7,0.8-1.3l-0.7-1
			c0.5-0.7,0.4-0.6,0.9-1.3l1.2,0.4c0.5-0.6,0.5-0.6,1-1.2l-0.6-1.1c0.6-0.6,0.5-0.5,1.1-1.1l1.1,0.5c0.6-0.5,0.6-0.5,1.1-1l-0.4-1
			c0.6-0.5,0.6-0.4,1.3-0.9l0.8,0.6c0.6-0.4,0.7-0.4,1.3-0.8l-0.2-1c0.7-0.4,0.7-0.4,1.4-0.7l0.7,0.7c0.7-0.3,0.7-0.3,1.4-0.6l0-1
			c0.8-0.3,0.7-0.2,1.5-0.5l0.6,0.8c0.7-0.2,0.8-0.2,1.5-0.4l0.1-1c0.8-0.1,0.7-0.1,1.5-0.3l0.5,0.9c0.7-0.1,0.8-0.1,1.5-0.1l0.3-1
			c0.8,0,0.8,0,1.6,0l0.3,1c0.7,0,0.8,0.1,1.5,0.1l0.5-1.1c0.8,0.1,0.8,0.1,1.5,0.2l0.2,1.2c0.7,0.2,0.8,0.2,1.5,0.3l0.7-1
			c0.8,0.2,0.7,0.2,1.5,0.5l0,1.2c0.7,0.3,0.7,0.3,1.4,0.6l0.9-0.9C115,10.9,115,10.9,115.7,11.2z M83,30.2
			c-1,7.1,1.6,14.4,7.1,19.2l6.2-12.6L83,30.2z M102,25.2l6.2-12.6c-7.2-1.5-14.5,0.8-19.6,6L102,25.2z M124.9,36.5
			c1.1-7.1-1.5-14.3-6.9-19L111.8,30L124.9,36.5z M106.1,41.6l-6.2,12.5c7,1.4,14.3-0.9,19.3-6.1L106.1,41.6z M98.2,30.5
			c-1.6,3.2-0.3,7.1,2.9,8.6s7.1,0.3,8.6-2.9c1.6-3.2,0.3-7.1-2.9-8.6C103.6,26,99.7,27.3,98.2,30.5z M114.8,38.7
			c-0.3,0.6,0,1.3,0.6,1.6c0.6,0.3,1.3,0,1.6-0.6c0.3-0.6,0-1.3-0.6-1.6C115.8,37.8,115.1,38.1,114.8,38.7z M90.9,26.9
			c-0.3,0.6,0,1.3,0.6,1.6c0.6,0.3,1.3,0,1.6-0.6c0.3-0.6,0-1.3-0.6-1.6C92,26,91.2,26.3,90.9,26.9z"/>
	</g>
</g>
<g>
	<path fill="#FFFFFF" d="M12.8,71.6h13.5l-0.9,3.9h-8.1l-0.9,4.7H23l-0.8,3.9h-6.6l-1.8,9.1H8.6L12.8,71.6z"/>
	<path fill="#FFFFFF" d="M30.8,71.6h5.2l-3.5,17.8h7.1v3.9H26.6L30.8,71.6z"/>
	<path fill="#FFFFFF" d="M54.2,71.6h4.5l4.1,21.7h-5.4l-0.8-5.2h-6.3l-2.8,5.4l-5.1-0.9L54.2,71.6z M55.2,78.3l-2.9,5.9H56
		C55.7,81.9,55.4,79.7,55.2,78.3z"/>
	<path fill="#FFFFFF" d="M83.1,75.4l-4.1,1.9c-0.5-1.4-0.9-2.1-2-2.1c-1.2,0-2,0.8-2,1.8c0,1.2,0.6,1.7,1.5,2.4l2.9,2.1
		c1.7,1.2,2.7,2.9,2.7,5.3c0,4.6-4,6.8-8.5,6.8c-3.1,0-5.4-0.8-7.2-1.8l2.3-4c1.6,0.9,3.2,1.8,4.9,1.8c1.7,0,2.9-0.7,2.9-2.3
		c0-1.3-0.6-2-1.7-2.7l-2.3-1.7c-2-1.5-3.1-3.1-3.1-5.7c0-3.8,3.3-6,7.7-6C81.3,71.2,82.5,73.3,83.1,75.4z"/>
	<path fill="#FFFFFF" d="M100.3,83.9H94l-1.8,9.4H87l4.2-21.7h5.2l-1.6,8.4h6.3l1.7-8.4h5.2l-4.2,21.7h-5.2L100.3,83.9z"/>
	<path fill="#FFFFFF" d="M115.9,71.6h13.5l-0.9,3.9h-8.1l-0.9,4.7h6.7l-0.8,3.9h-6.6l-1.8,9.1h-5.2L115.9,71.6z"/>
	<path fill="#FFFFFF" d="M150.2,78.6c0,7.6-3.8,15.2-12.1,15.2c-5.3,0-7.5-2.8-7.5-7.5c0-7.7,3.8-15.1,12-15.1
		C148,71.2,150.2,73.9,150.2,78.6z M136.3,85.7c0,2.2,0.7,4,2.9,4c3.7,0,5.4-6.3,5.4-10.6c0-2.2-0.7-3.9-2.9-3.9
		C138,75.2,136.3,81.4,136.3,85.7z"/>
	<path fill="#FFFFFF" d="M155.3,71.6h16.1l-0.8,3.9h-5.1L162,93.3h-5.3l3.4-17.8h-4.9V71.6z"/>
	<path fill="#FFFFFF" d="M191.8,78.6c0,7.6-3.8,15.2-12.1,15.2c-5.3,0-7.5-2.8-7.5-7.5c0-7.7,3.8-15.1,12-15.1
		C189.5,71.2,191.8,73.9,191.8,78.6z M177.8,85.7c0,2.2,0.7,4,2.9,4c3.7,0,5.4-6.3,5.4-10.6c0-2.2-0.7-3.9-2.9-3.9
		C179.5,75.2,177.8,81.4,177.8,85.7z"/>
</g>
</svg>
